<svg width="14" height="14" viewBox="0 0 14 14" fill="none" xmlns="http://www.w3.org/2000/svg">
<path d="M7 7V10.5H3.5V7H7Z" fill="white"/>
<path d="M7 7V10.5H3.5V7H7Z" stroke="#D9D9D9"/>
<path d="M3.5 7V10.5H0V7H3.5Z" fill="white"/>
<path d="M3.5 7V10.5H0V7H3.5Z" stroke="#D9D9D9"/>
<path d="M5.25 3.5V7H1.75V3.5H5.25Z" fill="white"/>
<path d="M5.25 3.5V7H1.75V3.5H5.25Z" stroke="#D9D9D9"/>
<path d="M8.75 0V3.5H5.25V0H8.75Z" fill="white"/>
<path d="M8.75 0V3.5H5.25V0H8.75Z" stroke="#D9D9D9"/>
<path d="M12.25 3.5V7H8.75V3.5H12.25Z" fill="white"/>
<path d="M12.25 3.5V7H8.75V3.5H12.25Z" stroke="#D9D9D9"/>
<path d="M8.75 10.5V14H5.25V10.5H8.75Z" fill="white"/>
<path d="M8.75 10.5V14H5.25V10.5H8.75Z" stroke="#D9D9D9"/>
<path d="M10.5 7V10.5H7V7H10.5Z" fill="white"/>
<path d="M10.5 7V10.5H7V7H10.5Z" stroke="#D9D9D9"/>
<path d="M14 7V10.5H10.5V7H14Z" fill="white"/>
<path d="M14 7V10.5H10.5V7H14Z" stroke="#D9D9D9"/>
</svg>
